<?xml version="1.0" standalone="no"?>
<!DOCTYPE svg PUBLIC "-//W3C//DTD SVG 20010904//EN"
 "http://www.w3.org/TR/2001/REC-SVG-20010904/DTD/svg10.dtd">
<svg version="1.0" xmlns="http://www.w3.org/2000/svg"
 width="1280.000000pt" height="1280.000000pt" viewBox="0 0 1280.000000 1280.000000"
 preserveAspectRatio="xMidYMid meet">
<metadata>
Created by potrace 1.15, written by Peter Selinger 2001-2017
</metadata>
<g transform="translate(0.000000,1280.000000) scale(0.100000,-0.100000)"
fill="#000000" stroke="none">
<path d="M5843 11893 l-2482 -3 -1391 -1530 -1392 -1531 18 -27 c50 -77 5818
-8429 5828 -8439 8 -8 167 216 652 925 353 515 1640 2395 2861 4177 1220 1782
2238 3267 2260 3301 l41 60 -81 90 c-45 50 -677 741 -1405 1537 l-1324 1447
-551 -2 c-304 -2 -1669 -4 -3034 -5z m3047 -410 c1 -32 9 -560 19 -1173 11
-613 17 -1118 14 -1122 -2 -5 -524 -8 -1159 -8 l-1154 0 0 1175 0 1175 463 3
c254 1 767 3 1140 5 l677 2 0 -57z m1458 -1120 c590 -645 1072 -1175 1072
-1178 0 -3 -479 -5 -1064 -5 l-1064 0 -6 143 c-3 78 -10 477 -16 887 -5 410
-13 877 -16 1039 -6 255 -5 293 8 290 8 -2 497 -531 1086 -1176z m-6820 -5
l-3 -1173 -1068 -3 c-588 -1 -1067 1 -1065 6 6 14 2123 2341 2131 2341 4 1 6
-527 5 -1171z m2722 -3 l0 -1175 -1180 0 -1180 0 0 1175 0 1175 1180 0 1180 0
0 -1175z m-2615 -1907 c7 -18 65 -186 128 -373 63 -187 550 -1622 1082 -3190
532 -1567 989 -2915 1016 -2995 27 -79 43 -138 35 -130 -18 18 -4636 6708
-4636 6715 0 3 531 5 1181 5 l1180 0 14 -32z m2614 -3275 c0 -1820 -3 -3301
-6 -3293 -25 66 -2233 6586 -2233 6592 0 4 504 8 1120 8 l1120 0 -1 -3307z
m2591 3298 c0 -11 -2220 -6564 -2225 -6570 -3 -2 -5 1474 -5 3281 0 1806 3
3288 7 3291 10 10 2223 8 2223 -2z m2720 4 c0 -3 -847 -1242 -1882 -2753
-1035 -1511 -2068 -3019 -2296 -3352 -228 -333 -420 -612 -428 -620 -8 -8 3
37 25 100 520 1541 2227 6574 2237 6598 l13 32 1165 0 c642 0 1166 -2 1166 -5z"/>
</g>
</svg>
